<mxfile host="app.diagrams.net" agent="Mozilla/5.0 (Windows NT 10.0; Win64; x64) AppleWebKit/537.36 (KHTML, like Gecko) Chrome/130.0.0.0 Safari/537.36 Edg/130.0.0.0" version="24.8.0">
  <diagram name="第 1 页" id="6C4BoXgDZ70INVVlp6P7">
    <mxGraphModel dx="655" dy="389" grid="1" gridSize="10" guides="1" tooltips="1" connect="1" arrows="1" fold="1" page="1" pageScale="1" pageWidth="827" pageHeight="1169" background="#ffffff" math="0" shadow="0">
      <root>
        <mxCell id="0" />
        <mxCell id="1" parent="0" />
        <mxCell id="8TfcYPS38Nrtef7eZrg--4" value="" style="edgeStyle=orthogonalEdgeStyle;rounded=0;orthogonalLoop=1;jettySize=auto;html=1;labelBackgroundColor=none;fontColor=default;strokeColor=#E07A5F;" edge="1" parent="1" source="8TfcYPS38Nrtef7eZrg--1" target="8TfcYPS38Nrtef7eZrg--3">
          <mxGeometry relative="1" as="geometry" />
        </mxCell>
        <mxCell id="8TfcYPS38Nrtef7eZrg--1" value="Actor" style="shape=umlActor;verticalLabelPosition=bottom;verticalAlign=top;html=1;outlineConnect=0;labelBackgroundColor=none;fillColor=#F2CC8F;strokeColor=#E07A5F;fontColor=#393C56;" vertex="1" parent="1">
          <mxGeometry x="210" y="120" width="30" height="60" as="geometry" />
        </mxCell>
        <mxCell id="8TfcYPS38Nrtef7eZrg--28" value="" style="rounded=0;whiteSpace=wrap;html=1;labelBackgroundColor=none;opacity=30;horizontal=1;fillColor=#F2CC8F;strokeColor=#E07A5F;fontColor=#393C56;" vertex="1" parent="1">
          <mxGeometry x="480" y="100" width="350" height="80" as="geometry" />
        </mxCell>
        <mxCell id="8TfcYPS38Nrtef7eZrg--7" value="" style="edgeStyle=orthogonalEdgeStyle;rounded=0;orthogonalLoop=1;jettySize=auto;html=1;labelBackgroundColor=none;fontColor=default;strokeColor=#E07A5F;" edge="1" parent="1" source="8TfcYPS38Nrtef7eZrg--3" target="8TfcYPS38Nrtef7eZrg--6">
          <mxGeometry relative="1" as="geometry" />
        </mxCell>
        <mxCell id="8TfcYPS38Nrtef7eZrg--3" value="上传excel" style="whiteSpace=wrap;html=1;verticalAlign=top;labelBackgroundColor=none;fillColor=#F2CC8F;strokeColor=#E07A5F;fontColor=#393C56;" vertex="1" parent="1">
          <mxGeometry x="290" y="135" width="70" height="30" as="geometry" />
        </mxCell>
        <mxCell id="8TfcYPS38Nrtef7eZrg--18" style="edgeStyle=orthogonalEdgeStyle;rounded=0;orthogonalLoop=1;jettySize=auto;html=1;entryX=0;entryY=0.5;entryDx=0;entryDy=0;labelBackgroundColor=none;fontColor=default;strokeColor=#E07A5F;" edge="1" parent="1" source="8TfcYPS38Nrtef7eZrg--6" target="8TfcYPS38Nrtef7eZrg--16">
          <mxGeometry relative="1" as="geometry" />
        </mxCell>
        <mxCell id="8TfcYPS38Nrtef7eZrg--6" value="分析诉求" style="whiteSpace=wrap;html=1;verticalAlign=top;labelBackgroundColor=none;fillColor=#F2CC8F;strokeColor=#E07A5F;fontColor=#393C56;" vertex="1" parent="1">
          <mxGeometry x="390" y="135" width="80" height="30" as="geometry" />
        </mxCell>
        <mxCell id="8TfcYPS38Nrtef7eZrg--19" style="edgeStyle=orthogonalEdgeStyle;rounded=0;orthogonalLoop=1;jettySize=auto;html=1;entryX=0;entryY=0.5;entryDx=0;entryDy=0;labelBackgroundColor=none;fontColor=default;strokeColor=#E07A5F;" edge="1" parent="1" source="8TfcYPS38Nrtef7eZrg--16" target="8TfcYPS38Nrtef7eZrg--17">
          <mxGeometry relative="1" as="geometry" />
        </mxCell>
        <mxCell id="8TfcYPS38Nrtef7eZrg--16" value="生成动态计划" style="whiteSpace=wrap;html=1;verticalAlign=top;labelBackgroundColor=none;fillColor=#F2CC8F;strokeColor=#E07A5F;fontColor=#393C56;" vertex="1" parent="1">
          <mxGeometry x="510" y="135" width="80" height="30" as="geometry" />
        </mxCell>
        <mxCell id="8TfcYPS38Nrtef7eZrg--33" value="" style="edgeStyle=orthogonalEdgeStyle;rounded=0;orthogonalLoop=1;jettySize=auto;html=1;strokeColor=#E07A5F;fontColor=#393C56;fillColor=#F2CC8F;" edge="1" parent="1" source="8TfcYPS38Nrtef7eZrg--17" target="8TfcYPS38Nrtef7eZrg--32">
          <mxGeometry relative="1" as="geometry" />
        </mxCell>
        <mxCell id="8TfcYPS38Nrtef7eZrg--17" value="生成参数" style="whiteSpace=wrap;html=1;verticalAlign=top;labelBackgroundColor=none;fillColor=#F2CC8F;strokeColor=#E07A5F;fontColor=#393C56;" vertex="1" parent="1">
          <mxGeometry x="610" y="135" width="80" height="30" as="geometry" />
        </mxCell>
        <mxCell id="8TfcYPS38Nrtef7eZrg--26" value="" style="curved=0;endArrow=classic;html=1;rounded=1;labelBackgroundColor=none;fontColor=default;strokeColor=#E07A5F;exitX=1;exitY=0.5;exitDx=0;exitDy=0;" edge="1" parent="1" source="8TfcYPS38Nrtef7eZrg--32">
          <mxGeometry width="50" height="50" relative="1" as="geometry">
            <mxPoint x="750" y="150" as="sourcePoint" />
            <mxPoint x="490" y="150" as="targetPoint" />
            <Array as="points">
              <mxPoint x="820" y="150" />
              <mxPoint x="820" y="110" />
              <mxPoint x="490" y="110" />
            </Array>
          </mxGeometry>
        </mxCell>
        <mxCell id="8TfcYPS38Nrtef7eZrg--30" value="前端展示" style="whiteSpace=wrap;html=1;verticalAlign=top;labelBackgroundColor=none;fillColor=#F2CC8F;strokeColor=#E07A5F;fontColor=#393C56;" vertex="1" parent="1">
          <mxGeometry x="290" y="220" width="70" height="30" as="geometry" />
        </mxCell>
        <mxCell id="8TfcYPS38Nrtef7eZrg--31" value="最终表格" style="whiteSpace=wrap;html=1;verticalAlign=top;labelBackgroundColor=none;fillColor=#F2CC8F;strokeColor=#E07A5F;fontColor=#393C56;" vertex="1" parent="1">
          <mxGeometry x="710" y="210" width="80" height="30" as="geometry" />
        </mxCell>
        <mxCell id="8TfcYPS38Nrtef7eZrg--34" style="edgeStyle=orthogonalEdgeStyle;rounded=0;orthogonalLoop=1;jettySize=auto;html=1;entryX=0.5;entryY=0;entryDx=0;entryDy=0;strokeColor=#E07A5F;fontColor=#393C56;fillColor=#F2CC8F;" edge="1" parent="1" source="8TfcYPS38Nrtef7eZrg--32" target="8TfcYPS38Nrtef7eZrg--31">
          <mxGeometry relative="1" as="geometry" />
        </mxCell>
        <mxCell id="8TfcYPS38Nrtef7eZrg--32" value="中间表格" style="whiteSpace=wrap;html=1;verticalAlign=top;labelBackgroundColor=none;fillColor=#F2CC8F;strokeColor=#E07A5F;fontColor=#393C56;" vertex="1" parent="1">
          <mxGeometry x="710" y="135" width="80" height="30" as="geometry" />
        </mxCell>
      </root>
    </mxGraphModel>
  </diagram>
</mxfile>
